<svg width="50" height="50" viewBox="0 0 50 50" fill="none" xmlns="http://www.w3.org/2000/svg">
<path fill-rule="evenodd" clip-rule="evenodd" d="M25 47.5C37.4264 47.5 47.5 37.4267 47.5 25C47.5 12.5736 37.4267 2.49995 25 2.49995C12.5736 2.49995 2.49995 12.5736 2.49995 25C2.49995 37.4264 12.5736 47.5 25 47.5ZM25 50C38.807 50 50 38.807 50 25C50 11.1928 38.807 0 25 0C11.1928 0 0 11.1928 0 25C0 38.807 11.1928 50 25 50Z" fill="white"/>
<path fill-rule="evenodd" clip-rule="evenodd" d="M31.4962 25.0007L19.9997 17.3364V32.6651L31.4962 25.0007ZM33.8188 23.5446C34.858 24.2374 34.858 25.7641 33.8188 26.4569L20.2203 35.5228C19.0574 36.2982 17.4995 35.4642 17.4995 34.0665V15.935C17.4995 14.5373 19.0574 13.7037 20.2203 14.479L33.8188 23.5446Z" fill="white"/>
</svg>
