<svg id="Objects" xmlns="http://www.w3.org/2000/svg" viewBox="0 0 296.6 468.4"><defs><style>.cls-1{fill:#ac0000;}</style></defs><title>tải xuogos</title><path class="cls-1" d="M257.1,417.1c3.2,3.2,4.3,4.3,8.5,4.3h0a9.64,9.64,0,0,0,8.5-4.3L394.6,262.4c3.2-4.3,3.2-11.7-2.1-14.9-4.3-3.2-11.7-3.2-14.9,2.1L276.3,379.7l1-347.7c0-6.4-4.3-10.7-10.7-10.7S256,25.6,256,32V378.7L155.7,248.5c-3.2-4.3-10.7-5.3-14.9-2.1s-5.3,10.7-2.1,14.9Z" transform="translate(-118.4 -21.3)"/><path class="cls-1" d="M403.2,468.3H129.1c-6.4,0-10.7,4.3-10.7,10.7s4.3,10.7,10.7,10.7H404.3c6.4,0,10.7-4.3,10.7-10.7S409.6,468.3,403.2,468.3Z" transform="translate(-118.4 -21.3)"/></svg>