<svg width="10" height="10" viewBox="0 0 10 10" fill="none" xmlns="http://www.w3.org/2000/svg">
<path d="M7.9291 3.55599C7.931 3.46941 7.9059 3.38438 7.85725 3.31273C7.8086 3.24108 7.7388 3.18638 7.65761 3.15621C7.57643 3.12605 7.48788 3.12193 7.40424 3.14443C7.32061 3.16692 7.2461 3.21492 7.19101 3.28174L5.00676 5.83138L2.82329 3.28174C2.78932 3.23552 2.74619 3.19681 2.69656 3.16803C2.64693 3.13926 2.59188 3.12104 2.53489 3.11452C2.47789 3.108 2.42018 3.11331 2.36534 3.13014C2.31049 3.14696 2.2597 3.17492 2.21616 3.21228C2.17262 3.24964 2.13731 3.29558 2.11235 3.34723C2.08739 3.39889 2.07338 3.45514 2.07117 3.51246C2.06895 3.56978 2.07857 3.62694 2.09947 3.68037C2.12038 3.73379 2.15208 3.78232 2.19261 3.82292L4.6902 6.74203C4.72932 6.78787 4.77787 6.82468 4.8326 6.84992C4.88732 6.87516 4.94688 6.88823 5.00715 6.88823C5.06741 6.88823 5.12698 6.87516 5.1817 6.84992C5.23642 6.82468 5.28503 6.78787 5.32415 6.74203L7.82414 3.82292C7.88964 3.74918 7.92687 3.6546 7.92919 3.55599L7.9291 3.55599Z" fill="black"/>
</svg>
