<svg width="15" height="15" viewBox="0 0 15 15" fill="none" xmlns="http://www.w3.org/2000/svg">
<g clip-path="url(#clip0_32_38)">
<path d="M14.0625 12.1875H0.9375C0.81318 12.1875 0.693951 12.1381 0.606044 12.0502C0.518136 11.9623 0.46875 11.8431 0.46875 11.7188V8.90625C0.46875 8.78193 0.518136 8.6627 0.606044 8.57479C0.693951 8.48689 0.81318 8.4375 0.9375 8.4375C1.06182 8.4375 1.18105 8.48689 1.26896 8.57479C1.35686 8.6627 1.40625 8.78193 1.40625 8.90625V11.25H13.5938V8.90625C13.5938 8.78193 13.6431 8.6627 13.731 8.57479C13.819 8.48689 13.9382 8.4375 14.0625 8.4375C14.1868 8.4375 14.306 8.48689 14.394 8.57479C14.4819 8.6627 14.5312 8.78193 14.5312 8.90625V11.7188C14.5312 11.8431 14.4819 11.9623 14.394 12.0502C14.306 12.1381 14.1868 12.1875 14.0625 12.1875Z" fill="#AC0000"/>
<path d="M7.5 10.3125C7.37568 10.3125 7.25645 10.2631 7.16854 10.1752C7.08064 10.0873 7.03125 9.96807 7.03125 9.84375V3.28125C7.03125 3.15693 7.08064 3.0377 7.16854 2.94979C7.25645 2.86189 7.37568 2.8125 7.5 2.8125C7.62432 2.8125 7.74355 2.86189 7.83146 2.94979C7.91936 3.0377 7.96875 3.15693 7.96875 3.28125V9.84375C7.96875 9.96807 7.91936 10.0873 7.83146 10.1752C7.74355 10.2631 7.62432 10.3125 7.5 10.3125Z" fill="#AC0000"/>
<path d="M7.49961 10.3126C7.43804 10.3127 7.37705 10.3006 7.32017 10.2771C7.26329 10.2535 7.21164 10.2189 7.1682 10.1753L5.52758 8.53463C5.44219 8.44622 5.39495 8.32782 5.39601 8.20491C5.39708 8.08201 5.44638 7.96444 5.53329 7.87753C5.6202 7.79062 5.73777 7.74132 5.86067 7.74025C5.98358 7.73918 6.10198 7.78643 6.19039 7.87182L7.49961 9.1808L8.80883 7.87182C8.89724 7.78643 9.01564 7.73918 9.13855 7.74025C9.26145 7.74132 9.37902 7.79062 9.46593 7.87753C9.55284 7.96444 9.60214 8.08201 9.60321 8.20491C9.60428 8.32782 9.55703 8.44622 9.47164 8.53463L7.83102 10.1753C7.78758 10.2189 7.73593 10.2535 7.67905 10.2771C7.62217 10.3006 7.56118 10.3127 7.49961 10.3126Z" fill="#AC0000"/>
</g>
<defs>
<clipPath id="clip0_32_38">
<rect width="15" height="15" fill="white"/>
</clipPath>
</defs>
</svg>
