<svg width="15" height="15" viewBox="0 0 15 15" fill="none" xmlns="http://www.w3.org/2000/svg">
<path d="M5.33374 3.10635C5.20387 3.1035 5.07633 3.14115 4.96886 3.21413C4.86138 3.2871 4.77932 3.39181 4.73407 3.51358C4.68883 3.63536 4.68265 3.76818 4.71639 3.89363C4.75014 4.01908 4.82213 4.13085 4.92237 4.21349L8.74683 7.48985L4.92237 10.7651C4.85303 10.816 4.79496 10.8807 4.7518 10.9552C4.70864 11.0296 4.68131 11.1122 4.67153 11.1977C4.66175 11.2832 4.66973 11.3697 4.69496 11.452C4.72019 11.5343 4.76214 11.6105 4.81818 11.6758C4.87421 11.7411 4.94313 11.794 5.02061 11.8315C5.09808 11.8689 5.18246 11.8899 5.26844 11.8933C5.35443 11.8966 5.44017 11.8821 5.52031 11.8508C5.60044 11.8194 5.67324 11.7719 5.73414 11.7111L10.1128 7.9647C10.1816 7.90602 10.2368 7.83319 10.2746 7.7511C10.3125 7.66902 10.3321 7.57967 10.3321 7.48928C10.3321 7.39888 10.3125 7.30954 10.2746 7.22745C10.2368 7.14537 10.1816 7.07246 10.1128 7.01378L5.73414 3.26379C5.62352 3.16555 5.48165 3.10969 5.33374 3.10621V3.10635Z" fill="#AC0000"/>
</svg>
