<svg width="15" height="15" viewBox="0 0 15 15" fill="none" xmlns="http://www.w3.org/2000/svg">
<path d="M14.8167 13.9332L10.5511 9.66765C11.3774 8.64704 11.8749 7.35017 11.8749 5.9377C11.8749 2.66398 9.21114 0.000244141 5.93742 0.000244141C2.6637 0.000244141 0 2.66395 0 5.93767C0 9.21138 2.66373 11.8751 5.93745 11.8751C7.34993 11.8751 8.6468 11.3776 9.66741 10.5514L13.933 14.817C14.0549 14.9388 14.2149 15.0001 14.3749 15.0001C14.5349 15.0001 14.6949 14.9388 14.8168 14.817C15.0611 14.5726 15.0611 14.1776 14.8167 13.9332ZM5.93745 10.6251C3.35247 10.6251 1.25 8.52265 1.25 5.93767C1.25 3.35268 3.35247 1.25021 5.93745 1.25021C8.52244 1.25021 10.6249 3.35268 10.6249 5.93767C10.6249 8.52265 8.52241 10.6251 5.93745 10.6251Z" fill="black"/>
</svg>
